<?xml version="1.0" encoding="UTF-8"?>
<!DOCTYPE svg PUBLIC "-//W3C//DTD SVG 1.1//EN" "http://www.w3.org/Graphics/SVG/1.1/DTD/svg11.dtd">
<!-- Creator: CorelDRAW X7 -->
<svg xmlns="http://www.w3.org/2000/svg" xml:space="preserve" width="94px" height="94px" version="1.1" style="shape-rendering:geometricPrecision; text-rendering:geometricPrecision; image-rendering:optimizeQuality; fill-rule:evenodd; clip-rule:evenodd"
viewBox="0 0 94 94"
 xmlns:xlink="http://www.w3.org/1999/xlink">
 <defs>
  <style type="text/css">
   <![CDATA[
    .fil0 {fill:#DACC96}
   ]]>
  </style>
 </defs>
 <g id="Layer_x0020_1">
  <metadata id="CorelCorpID_0Corel-Layer"/>
  <path class="fil0" d="M47 0c-44,0 -47,3 -47,47l0 0c0,44 3,47 47,47l0 0c44,0 47,-3 47,-47l0 0c0,-44 -3,-47 -47,-47l0 0zm28 14c3,0 5,2 5,5 0,2 -2,4 -5,4 -2,1 -4,-2 -5,-4 0,-3 3,-5 5,-5zm-28 9c13,0 23,11 23,24 1,13 -10,23 -23,23 -13,1 -23,-10 -24,-23 0,-13 11,-23 24,-24zm0 10c-8,0 -14,6 -14,14 0,8 6,14 14,14 8,0 14,-6 14,-14 0,-8 -6,-14 -14,-14z"/>
 </g>
</svg>
